<?xml version="1.0" encoding="UTF-8" standalone="no"?>
<!DOCTYPE svg PUBLIC "-//W3C//DTD SVG 1.1//EN" "http://www.w3.org/Graphics/SVG/1.1/DTD/svg11.dtd">
<svg xmlns="http://www.w3.org/2000/svg" version="1.1" viewBox="0.00 0.00 130.00 90.00">
<g stroke-width="2.00" fill="none" stroke-linecap="butt">
<path stroke="#80b8de" vector-effect="non-scaling-stroke" d="
  M 76.67 47.09
  L 61.24 11.68
  A 0.95 0.94 -9.8 0 0 60.44 11.12
  C 49.36 10.33 39.20 12.76 34.35 23.76
  C 31.74 29.68 32.32 38.30 36.11 43.74
  Q 42.12 52.33 52.77 52.86
  Q 60.26 53.23 69.68 52.92
  A 0.14 0.14 0.0 0 0 69.80 52.72
  L 68.01 48.80
  Q 67.92 48.63 67.73 48.62
  Q 62.78 48.41 57.61 48.61
  Q 51.58 48.84 48.22 47.62
  C 34.36 42.57 33.64 22.00 47.62 16.70
  Q 51.45 15.24 57.31 15.35
  Q 57.89 15.36 58.12 15.89
  L 74.42 52.50
  Q 74.64 53.00 75.18 53.00
  L 78.35 53.00
  Q 79.01 53.00 79.28 52.40
  L 97.43 11.72
  Q 97.73 11.04 96.99 11.04
  L 93.65 11.01
  Q 92.99 11.01 92.72 11.61
  L 77.09 47.09
  A 0.23 0.23 0.0 0 1 76.67 47.09"
/>
<path stroke="#80b8de" vector-effect="non-scaling-stroke" d="
  M 80.34 21.18
  A 0.34 0.34 0.0 0 0 80.34 21.44
  L 82.24 25.86
  A 0.34 0.34 0.0 0 0 82.87 25.86
  L 89.26 11.51
  A 0.34 0.34 0.0 0 0 88.94 11.03
  L 84.90 11.05
  A 0.34 0.34 0.0 0 0 84.59 11.26
  L 80.34 21.18"
/>
<path stroke="#80b8de" vector-effect="non-scaling-stroke" d="
  M 64.87 41.69
  Q 64.76 41.43 64.48 41.43
  Q 56.53 41.58 49.72 41.36
  Q 46.40 41.26 43.37 39.74
  Q 41.70 38.91 42.86 40.37
  Q 47.27 45.90 54.90 45.85
  Q 61.54 45.80 66.47 45.89
  Q 66.70 45.90 66.61 45.69
  L 64.87 41.69"
/>
<path stroke="#80b8de" vector-effect="non-scaling-stroke" d="
  M 31.35 66.15
  C 27.31 67.51 26.35 60.74 31.27 61.51
  Q 31.92 61.61 31.95 60.96
  L 31.97 60.54
  Q 32.01 59.87 31.34 59.80
  C 23.76 58.98 25.15 69.58 31.52 67.92
  Q 32.19 67.74 32.08 67.05
  L 32.01 66.55
  Q 31.91 65.96 31.35 66.15"
/>
<path stroke="#80b8de" vector-effect="non-scaling-stroke" d="
  M 37.95 59.87
  A 0.34 0.34 0.0 0 0 37.66 60.10
  L 36.49 63.42
  A 0.34 0.34 0.0 0 1 35.85 63.43
  L 34.54 59.97
  A 0.34 0.34 0.0 0 0 34.17 59.75
  L 33.09 59.92
  A 0.34 0.34 0.0 0 0 32.83 60.38
  L 35.81 67.90
  A 0.34 0.34 0.0 0 0 36.44 67.90
  L 39.54 60.25
  A 0.34 0.34 0.0 0 0 39.20 59.78
  L 37.95 59.87"
/>
<path stroke="#80b8de" vector-effect="non-scaling-stroke" d="
  M 47.36 66.33
  C 44.09 65.66 44.70 60.83 49.04 61.54
  A 0.50 0.50 0.0 0 0 49.63 61.06
  L 49.64 60.73
  Q 49.65 59.93 48.87 59.81
  C 42.15 58.77 41.46 68.50 48.61 68.03
  A 1.34 1.33 89.5 0 0 49.86 66.75
  L 49.95 64.75
  Q 49.99 63.84 49.08 63.86
  L 48.78 63.86
  Q 48.11 63.87 48.09 64.54
  L 48.07 65.77
  A 0.59 0.59 0.0 0 1 47.36 66.33"
/>
<path stroke="#80b8de" vector-effect="non-scaling-stroke" d="
  M 53.84 64.76
  Q 54.48 64.79 55.06 64.65
  Q 55.31 64.59 55.47 64.38
  Q 55.74 64.03 55.56 63.63
  Q 55.41 63.32 55.09 63.21
  Q 54.51 63.01 53.92 62.99
  A 0.72 0.72 0.0 0 1 53.21 62.32
  L 53.19 62.01
  A 0.34 0.34 0.0 0 1 53.43 61.65
  Q 54.27 61.39 55.18 61.48
  Q 55.78 61.55 55.76 60.95
  L 55.75 60.25
  A 0.50 0.49 -0.6 0 0 55.25 59.77
  L 52.43 59.82
  Q 51.71 59.84 51.70 60.57
  L 51.62 67.18
  Q 51.61 68.01 52.43 68.00
  L 55.29 67.98
  Q 56.06 67.98 56.01 67.21
  L 55.99 66.88
  Q 55.95 66.35 55.42 66.36
  L 53.81 66.37
  Q 53.23 66.38 53.27 65.81
  L 53.32 65.23
  Q 53.35 64.74 53.84 64.76"
/>
<path stroke="#80b8de" vector-effect="non-scaling-stroke" d="
  M 58.93 64.22
  A 0.33 0.33 0.0 0 1 59.51 63.99
  L 63.05 68.05
  A 0.33 0.33 0.0 0 0 63.63 67.83
  L 63.63 60.11
  A 0.33 0.33 0.0 0 0 63.27 59.78
  L 62.30 59.88
  A 0.33 0.33 0.0 0 0 62.00 60.21
  L 62.01 63.68
  A 0.33 0.33 0.0 0 1 61.42 63.90
  L 58.05 59.84
  A 0.33 0.33 0.0 0 0 57.47 60.05
  L 57.43 67.67
  A 0.33 0.33 0.0 0 0 57.78 68.00
  L 58.74 67.95
  A 0.33 0.33 0.0 0 0 59.05 67.61
  L 58.93 64.22"
/>
<path stroke="#80b8de" vector-effect="non-scaling-stroke" d="
  M 67.55 64.81
  Q 68.01 64.70 68.50 64.75
  Q 69.07 64.82 69.38 64.34
  Q 69.60 64.00 69.41 63.63
  Q 69.23 63.27 68.85 63.15
  Q 68.28 62.97 67.70 62.98
  Q 67.13 62.98 67.09 62.42
  L 67.06 62.08
  Q 67.02 61.53 67.57 61.52
  L 69.03 61.48
  Q 69.67 61.46 69.67 60.83
  L 69.67 60.41
  Q 69.68 59.77 69.03 59.78
  L 66.23 59.81
  Q 65.52 59.81 65.52 60.52
  L 65.51 67.13
  Q 65.50 68.01 66.38 68.00
  L 69.26 67.97
  A 0.63 0.63 0.0 0 0 69.89 67.38
  L 69.92 67.03
  A 0.63 0.63 0.0 0 0 69.28 66.35
  L 67.71 66.38
  A 0.58 0.58 0.0 0 1 67.12 65.77
  L 67.15 65.27
  Q 67.17 64.89 67.55 64.81"
/>
<path stroke="#80b8de" vector-effect="non-scaling-stroke" d="
  M 72.99 65.47
  Q 73.27 63.96 73.97 65.33
  L 75.07 67.48
  A 0.99 0.99 0.0 0 0 76.00 68.02
  L 76.46 67.99
  Q 77.36 67.94 76.86 67.19
  L 75.63 65.32
  A 0.78 0.77 -33.9 0 1 75.84 64.26
  C 76.37 63.89 76.75 63.60 76.87 62.90
  C 77.44 59.74 74.14 59.53 71.89 59.78
  Q 71.27 59.85 71.27 60.47
  L 71.27 67.29
  Q 71.27 68.05 72.03 68.02
  L 72.29 68.00
  Q 73.05 67.97 72.96 67.21
  Q 72.85 66.28 72.99 65.47"
/>
<path stroke="#80b8de" vector-effect="non-scaling-stroke" d="
  M 80.70 60.23
  C 79.91 62.26 79.03 64.25 78.21 66.31
  Q 77.11 69.07 79.64 67.50
  Q 80.22 67.14 80.89 67.05
  A 1.76 1.74 55.8 0 1 82.00 67.27
  Q 82.97 67.83 84.06 68.02
  A 0.35 0.35 0.0 0 0 84.45 67.54
  L 81.45 60.22
  Q 81.07 59.29 80.70 60.23"
/>
<path stroke="#80b8de" vector-effect="non-scaling-stroke" d="
  M 89.29 61.47
  L 90.16 61.52
  A 0.68 0.68 0.0 0 0 90.86 60.98
  L 90.94 60.55
  Q 91.09 59.78 90.30 59.78
  L 85.75 59.79
  A 0.71 0.71 0.0 0 0 85.04 60.47
  L 85.03 60.87
  Q 85.00 61.57 85.69 61.46
  Q 86.16 61.39 86.59 61.48
  Q 87.12 61.61 87.11 62.15
  L 87.03 67.27
  Q 87.01 68.02 87.77 68.01
  L 88.17 68.00
  Q 88.83 67.99 88.82 67.33
  L 88.78 61.96
  Q 88.77 61.45 89.29 61.47"
/>
<path stroke="#80b8de" vector-effect="non-scaling-stroke" d="
  M 100.23 63.89
  A 4.26 4.26 0.0 0 0 95.97 59.63
  A 4.26 4.26 0.0 0 0 91.71 63.89
  A 4.26 4.26 0.0 0 0 95.97 68.15
  A 4.26 4.26 0.0 0 0 100.23 63.89"
/>
<path stroke="#80b8de" vector-effect="non-scaling-stroke" d="
  M 103.45 66.22
  Q 103.33 63.61 104.68 65.85
  Q 105.18 66.68 105.60 67.51
  Q 105.86 68.02 106.44 68.00
  L 107.02 67.98
  Q 107.81 67.96 107.40 67.29
  L 106.18 65.31
  Q 105.82 64.72 106.37 64.30
  Q 107.81 63.18 107.29 61.51
  C 106.63 59.41 104.18 59.75 102.47 59.77
  Q 101.76 59.77 101.76 60.48
  L 101.74 67.41
  A 0.62 0.61 -2.6 0 0 102.41 68.02
  L 102.94 67.97
  Q 103.53 67.91 103.50 67.31
  L 103.45 66.22"
/>
<path stroke="#80b8de" vector-effect="non-scaling-stroke" d="
  M 75.0784 62.4500
  A 1.11 0.98 3.1 0 0 74.0230 61.4114
  A 1.11 0.98 3.1 0 0 72.8616 62.3300
  A 1.11 0.98 3.1 0 0 73.9170 63.3686
  A 1.11 0.98 3.1 0 0 75.0784 62.4500"
/>
<path stroke="#80b8de" vector-effect="non-scaling-stroke" d="
  M 81.36 64.36
  Q 81.43 64.16 81.30 64.03
  Q 80.97 63.70 80.84 64.14
  L 80.53 65.14
  Q 80.38 65.63 80.89 65.63
  L 81.26 65.63
  A 0.45 0.44 -85.5 0 0 81.70 65.25
  Q 81.76 64.82 81.44 64.59
  Q 81.32 64.50 81.36 64.36"
/>
<path stroke="#80b8de" vector-effect="non-scaling-stroke" d="
  M 98.44 63.91
  A 2.46 2.46 0.0 0 0 95.98 61.45
  A 2.46 2.46 0.0 0 0 93.52 63.91
  A 2.46 2.46 0.0 0 0 95.98 66.37
  A 2.46 2.46 0.0 0 0 98.44 63.91"
/>
<path stroke="#80b8de" vector-effect="non-scaling-stroke" d="
  M 104.23 63.36
  Q 105.29 63.39 105.63 62.56
  A 0.69 0.69 0.0 0 0 105.38 61.74
  Q 104.80 61.35 104.08 61.41
  Q 103.30 61.48 103.42 62.25
  L 103.49 62.70
  Q 103.58 63.34 104.23 63.36"
/>
</g>
<path fill="#ffffff" d="
  M 0.00 0.00
  L 130.00 0.00
  L 130.00 90.00
  L 0.00 90.00
  L 0.00 0.00
  Z
  M 76.67 47.09
  L 61.24 11.68
  A 0.95 0.94 -9.8 0 0 60.44 11.12
  C 49.36 10.33 39.20 12.76 34.35 23.76
  C 31.74 29.68 32.32 38.30 36.11 43.74
  Q 42.12 52.33 52.77 52.86
  Q 60.26 53.23 69.68 52.92
  A 0.14 0.14 0.0 0 0 69.80 52.72
  L 68.01 48.80
  Q 67.92 48.63 67.73 48.62
  Q 62.78 48.41 57.61 48.61
  Q 51.58 48.84 48.22 47.62
  C 34.36 42.57 33.64 22.00 47.62 16.70
  Q 51.45 15.24 57.31 15.35
  Q 57.89 15.36 58.12 15.89
  L 74.42 52.50
  Q 74.64 53.00 75.18 53.00
  L 78.35 53.00
  Q 79.01 53.00 79.28 52.40
  L 97.43 11.72
  Q 97.73 11.04 96.99 11.04
  L 93.65 11.01
  Q 92.99 11.01 92.72 11.61
  L 77.09 47.09
  A 0.23 0.23 0.0 0 1 76.67 47.09
  Z
  M 80.34 21.18
  A 0.34 0.34 0.0 0 0 80.34 21.44
  L 82.24 25.86
  A 0.34 0.34 0.0 0 0 82.87 25.86
  L 89.26 11.51
  A 0.34 0.34 0.0 0 0 88.94 11.03
  L 84.90 11.05
  A 0.34 0.34 0.0 0 0 84.59 11.26
  L 80.34 21.18
  Z
  M 64.87 41.69
  Q 64.76 41.43 64.48 41.43
  Q 56.53 41.58 49.72 41.36
  Q 46.40 41.26 43.37 39.74
  Q 41.70 38.91 42.86 40.37
  Q 47.27 45.90 54.90 45.85
  Q 61.54 45.80 66.47 45.89
  Q 66.70 45.90 66.61 45.69
  L 64.87 41.69
  Z
  M 31.35 66.15
  C 27.31 67.51 26.35 60.74 31.27 61.51
  Q 31.92 61.61 31.95 60.96
  L 31.97 60.54
  Q 32.01 59.87 31.34 59.80
  C 23.76 58.98 25.15 69.58 31.52 67.92
  Q 32.19 67.74 32.08 67.05
  L 32.01 66.55
  Q 31.91 65.96 31.35 66.15
  Z
  M 37.95 59.87
  A 0.34 0.34 0.0 0 0 37.66 60.10
  L 36.49 63.42
  A 0.34 0.34 0.0 0 1 35.85 63.43
  L 34.54 59.97
  A 0.34 0.34 0.0 0 0 34.17 59.75
  L 33.09 59.92
  A 0.34 0.34 0.0 0 0 32.83 60.38
  L 35.81 67.90
  A 0.34 0.34 0.0 0 0 36.44 67.90
  L 39.54 60.25
  A 0.34 0.34 0.0 0 0 39.20 59.78
  L 37.95 59.87
  Z
  M 47.36 66.33
  C 44.09 65.66 44.70 60.83 49.04 61.54
  A 0.50 0.50 0.0 0 0 49.63 61.06
  L 49.64 60.73
  Q 49.65 59.93 48.87 59.81
  C 42.15 58.77 41.46 68.50 48.61 68.03
  A 1.34 1.33 89.5 0 0 49.86 66.75
  L 49.95 64.75
  Q 49.99 63.84 49.08 63.86
  L 48.78 63.86
  Q 48.11 63.87 48.09 64.54
  L 48.07 65.77
  A 0.59 0.59 0.0 0 1 47.36 66.33
  Z
  M 53.84 64.76
  Q 54.48 64.79 55.06 64.65
  Q 55.31 64.59 55.47 64.38
  Q 55.74 64.03 55.56 63.63
  Q 55.41 63.32 55.09 63.21
  Q 54.51 63.01 53.92 62.99
  A 0.72 0.72 0.0 0 1 53.21 62.32
  L 53.19 62.01
  A 0.34 0.34 0.0 0 1 53.43 61.65
  Q 54.27 61.39 55.18 61.48
  Q 55.78 61.55 55.76 60.95
  L 55.75 60.25
  A 0.50 0.49 -0.6 0 0 55.25 59.77
  L 52.43 59.82
  Q 51.71 59.84 51.70 60.57
  L 51.62 67.18
  Q 51.61 68.01 52.43 68.00
  L 55.29 67.98
  Q 56.06 67.98 56.01 67.21
  L 55.99 66.88
  Q 55.95 66.35 55.42 66.36
  L 53.81 66.37
  Q 53.23 66.38 53.27 65.81
  L 53.32 65.23
  Q 53.35 64.74 53.84 64.76
  Z
  M 58.93 64.22
  A 0.33 0.33 0.0 0 1 59.51 63.99
  L 63.05 68.05
  A 0.33 0.33 0.0 0 0 63.63 67.83
  L 63.63 60.11
  A 0.33 0.33 0.0 0 0 63.27 59.78
  L 62.30 59.88
  A 0.33 0.33 0.0 0 0 62.00 60.21
  L 62.01 63.68
  A 0.33 0.33 0.0 0 1 61.42 63.90
  L 58.05 59.84
  A 0.33 0.33 0.0 0 0 57.47 60.05
  L 57.43 67.67
  A 0.33 0.33 0.0 0 0 57.78 68.00
  L 58.74 67.95
  A 0.33 0.33 0.0 0 0 59.05 67.61
  L 58.93 64.22
  Z
  M 67.55 64.81
  Q 68.01 64.70 68.50 64.75
  Q 69.07 64.82 69.38 64.34
  Q 69.60 64.00 69.41 63.63
  Q 69.23 63.27 68.85 63.15
  Q 68.28 62.97 67.70 62.98
  Q 67.13 62.98 67.09 62.42
  L 67.06 62.08
  Q 67.02 61.53 67.57 61.52
  L 69.03 61.48
  Q 69.67 61.46 69.67 60.83
  L 69.67 60.41
  Q 69.68 59.77 69.03 59.78
  L 66.23 59.81
  Q 65.52 59.81 65.52 60.52
  L 65.51 67.13
  Q 65.50 68.01 66.38 68.00
  L 69.26 67.97
  A 0.63 0.63 0.0 0 0 69.89 67.38
  L 69.92 67.03
  A 0.63 0.63 0.0 0 0 69.28 66.35
  L 67.71 66.38
  A 0.58 0.58 0.0 0 1 67.12 65.77
  L 67.15 65.27
  Q 67.17 64.89 67.55 64.81
  Z
  M 72.99 65.47
  Q 73.27 63.96 73.97 65.33
  L 75.07 67.48
  A 0.99 0.99 0.0 0 0 76.00 68.02
  L 76.46 67.99
  Q 77.36 67.94 76.86 67.19
  L 75.63 65.32
  A 0.78 0.77 -33.9 0 1 75.84 64.26
  C 76.37 63.89 76.75 63.60 76.87 62.90
  C 77.44 59.74 74.14 59.53 71.89 59.78
  Q 71.27 59.85 71.27 60.47
  L 71.27 67.29
  Q 71.27 68.05 72.03 68.02
  L 72.29 68.00
  Q 73.05 67.97 72.96 67.21
  Q 72.85 66.28 72.99 65.47
  Z
  M 80.70 60.23
  C 79.91 62.26 79.03 64.25 78.21 66.31
  Q 77.11 69.07 79.64 67.50
  Q 80.22 67.14 80.89 67.05
  A 1.76 1.74 55.8 0 1 82.00 67.27
  Q 82.97 67.83 84.06 68.02
  A 0.35 0.35 0.0 0 0 84.45 67.54
  L 81.45 60.22
  Q 81.07 59.29 80.70 60.23
  Z
  M 89.29 61.47
  L 90.16 61.52
  A 0.68 0.68 0.0 0 0 90.86 60.98
  L 90.94 60.55
  Q 91.09 59.78 90.30 59.78
  L 85.75 59.79
  A 0.71 0.71 0.0 0 0 85.04 60.47
  L 85.03 60.87
  Q 85.00 61.57 85.69 61.46
  Q 86.16 61.39 86.59 61.48
  Q 87.12 61.61 87.11 62.15
  L 87.03 67.27
  Q 87.01 68.02 87.77 68.01
  L 88.17 68.00
  Q 88.83 67.99 88.82 67.33
  L 88.78 61.96
  Q 88.77 61.45 89.29 61.47
  Z
  M 100.23 63.89
  A 4.26 4.26 0.0 0 0 95.97 59.63
  A 4.26 4.26 0.0 0 0 91.71 63.89
  A 4.26 4.26 0.0 0 0 95.97 68.15
  A 4.26 4.26 0.0 0 0 100.23 63.89
  Z
  M 103.45 66.22
  Q 103.33 63.61 104.68 65.85
  Q 105.18 66.68 105.60 67.51
  Q 105.86 68.02 106.44 68.00
  L 107.02 67.98
  Q 107.81 67.96 107.40 67.29
  L 106.18 65.31
  Q 105.82 64.72 106.37 64.30
  Q 107.81 63.18 107.29 61.51
  C 106.63 59.41 104.18 59.75 102.47 59.77
  Q 101.76 59.77 101.76 60.48
  L 101.74 67.41
  A 0.62 0.61 -2.6 0 0 102.41 68.02
  L 102.94 67.97
  Q 103.53 67.91 103.50 67.31
  L 103.45 66.22
  Z"
/>
<path fill="#0071bc" d="
  M 76.67 47.09
  A 0.23 0.23 0.0 0 0 77.09 47.09
  L 92.72 11.61
  Q 92.99 11.01 93.65 11.01
  L 96.99 11.04
  Q 97.73 11.04 97.43 11.72
  L 79.28 52.40
  Q 79.01 53.00 78.35 53.00
  L 75.18 53.00
  Q 74.64 53.00 74.42 52.50
  L 58.12 15.89
  Q 57.89 15.36 57.31 15.35
  Q 51.45 15.24 47.62 16.70
  C 33.64 22.00 34.36 42.57 48.22 47.62
  Q 51.58 48.84 57.61 48.61
  Q 62.78 48.41 67.73 48.62
  Q 67.92 48.63 68.01 48.80
  L 69.80 52.72
  A 0.14 0.14 0.0 0 1 69.68 52.92
  Q 60.26 53.23 52.77 52.86
  Q 42.12 52.33 36.11 43.74
  C 32.32 38.30 31.74 29.68 34.35 23.76
  C 39.20 12.76 49.36 10.33 60.44 11.12
  A 0.95 0.94 -9.8 0 1 61.24 11.68
  L 76.67 47.09
  Z"
/>
<path fill="#0071bc" d="
  M 80.34 21.18
  L 84.59 11.26
  A 0.34 0.34 0.0 0 1 84.90 11.05
  L 88.94 11.03
  A 0.34 0.34 0.0 0 1 89.26 11.51
  L 82.87 25.86
  A 0.34 0.34 0.0 0 1 82.24 25.86
  L 80.34 21.44
  A 0.34 0.34 0.0 0 1 80.34 21.18
  Z"
/>
<path fill="#0071bc" d="
  M 64.87 41.69
  L 66.61 45.69
  Q 66.70 45.90 66.47 45.89
  Q 61.54 45.80 54.90 45.85
  Q 47.27 45.90 42.86 40.37
  Q 41.70 38.91 43.37 39.74
  Q 46.40 41.26 49.72 41.36
  Q 56.53 41.58 64.48 41.43
  Q 64.76 41.43 64.87 41.69
  Z"
/>
<path fill="#0071bc" d="
  M 31.27 61.51
  C 26.35 60.74 27.31 67.51 31.35 66.15
  Q 31.91 65.96 32.01 66.55
  L 32.08 67.05
  Q 32.19 67.74 31.52 67.92
  C 25.15 69.58 23.76 58.98 31.34 59.80
  Q 32.01 59.87 31.97 60.54
  L 31.95 60.96
  Q 31.92 61.61 31.27 61.51
  Z"
/>
<path fill="#0071bc" d="
  M 37.95 59.87
  L 39.20 59.78
  A 0.34 0.34 0.0 0 1 39.54 60.25
  L 36.44 67.90
  A 0.34 0.34 0.0 0 1 35.81 67.90
  L 32.83 60.38
  A 0.34 0.34 0.0 0 1 33.09 59.92
  L 34.17 59.75
  A 0.34 0.34 0.0 0 1 34.54 59.97
  L 35.85 63.43
  A 0.34 0.34 0.0 0 0 36.49 63.42
  L 37.66 60.10
  A 0.34 0.34 0.0 0 1 37.95 59.87
  Z"
/>
<path fill="#0071bc" d="
  M 48.07 65.77
  L 48.09 64.54
  Q 48.11 63.87 48.78 63.86
  L 49.08 63.86
  Q 49.99 63.84 49.95 64.75
  L 49.86 66.75
  A 1.34 1.33 89.5 0 1 48.61 68.03
  C 41.46 68.50 42.15 58.77 48.87 59.81
  Q 49.65 59.93 49.64 60.73
  L 49.63 61.06
  A 0.50 0.50 0.0 0 1 49.04 61.54
  C 44.70 60.83 44.09 65.66 47.36 66.33
  A 0.59 0.59 0.0 0 0 48.07 65.77
  Z"
/>
<path fill="#0071bc" d="
  M 53.84 64.76
  Q 53.35 64.74 53.32 65.23
  L 53.27 65.81
  Q 53.23 66.38 53.81 66.37
  L 55.42 66.36
  Q 55.95 66.35 55.99 66.88
  L 56.01 67.21
  Q 56.06 67.98 55.29 67.98
  L 52.43 68.00
  Q 51.61 68.01 51.62 67.18
  L 51.70 60.57
  Q 51.71 59.84 52.43 59.82
  L 55.25 59.77
  A 0.50 0.49 -0.6 0 1 55.75 60.25
  L 55.76 60.95
  Q 55.78 61.55 55.18 61.48
  Q 54.27 61.39 53.43 61.65
  A 0.34 0.34 0.0 0 0 53.19 62.01
  L 53.21 62.32
  A 0.72 0.72 0.0 0 0 53.92 62.99
  Q 54.51 63.01 55.09 63.21
  Q 55.41 63.32 55.56 63.63
  Q 55.74 64.03 55.47 64.38
  Q 55.31 64.59 55.06 64.65
  Q 54.48 64.79 53.84 64.76
  Z"
/>
<path fill="#0071bc" d="
  M 58.93 64.22
  L 59.05 67.61
  A 0.33 0.33 0.0 0 1 58.74 67.95
  L 57.78 68.00
  A 0.33 0.33 0.0 0 1 57.43 67.67
  L 57.47 60.05
  A 0.33 0.33 0.0 0 1 58.05 59.84
  L 61.42 63.90
  A 0.33 0.33 0.0 0 0 62.01 63.68
  L 62.00 60.21
  A 0.33 0.33 0.0 0 1 62.30 59.88
  L 63.27 59.78
  A 0.33 0.33 0.0 0 1 63.63 60.11
  L 63.63 67.83
  A 0.33 0.33 0.0 0 1 63.05 68.05
  L 59.51 63.99
  A 0.33 0.33 0.0 0 0 58.93 64.22
  Z"
/>
<path fill="#0071bc" d="
  M 67.55 64.81
  Q 67.17 64.89 67.15 65.27
  L 67.12 65.77
  A 0.58 0.58 0.0 0 0 67.71 66.38
  L 69.28 66.35
  A 0.63 0.63 0.0 0 1 69.92 67.03
  L 69.89 67.38
  A 0.63 0.63 0.0 0 1 69.26 67.97
  L 66.38 68.00
  Q 65.50 68.01 65.51 67.13
  L 65.52 60.52
  Q 65.52 59.81 66.23 59.81
  L 69.03 59.78
  Q 69.68 59.77 69.67 60.41
  L 69.67 60.83
  Q 69.67 61.46 69.03 61.48
  L 67.57 61.52
  Q 67.02 61.53 67.06 62.08
  L 67.09 62.42
  Q 67.13 62.98 67.70 62.98
  Q 68.28 62.97 68.85 63.15
  Q 69.23 63.27 69.41 63.63
  Q 69.60 64.00 69.38 64.34
  Q 69.07 64.82 68.50 64.75
  Q 68.01 64.70 67.55 64.81
  Z"
/>
<path fill="#0071bc" d="
  M 72.99 65.47
  Q 72.85 66.28 72.96 67.21
  Q 73.05 67.97 72.29 68.00
  L 72.03 68.02
  Q 71.27 68.05 71.27 67.29
  L 71.27 60.47
  Q 71.27 59.85 71.89 59.78
  C 74.14 59.53 77.44 59.74 76.87 62.90
  C 76.75 63.60 76.37 63.89 75.84 64.26
  A 0.78 0.77 -33.9 0 0 75.63 65.32
  L 76.86 67.19
  Q 77.36 67.94 76.46 67.99
  L 76.00 68.02
  A 0.99 0.99 0.0 0 1 75.07 67.48
  L 73.97 65.33
  Q 73.27 63.96 72.99 65.47
  Z
  M 75.0784 62.4500
  A 1.11 0.98 3.1 0 0 74.0230 61.4114
  A 1.11 0.98 3.1 0 0 72.8616 62.3300
  A 1.11 0.98 3.1 0 0 73.9170 63.3686
  A 1.11 0.98 3.1 0 0 75.0784 62.4500
  Z"
/>
<path fill="#0071bc" d="
  M 78.21 66.31
  C 79.03 64.25 79.91 62.26 80.70 60.23
  Q 81.07 59.29 81.45 60.22
  L 84.45 67.54
  A 0.35 0.35 0.0 0 1 84.06 68.02
  Q 82.97 67.83 82.00 67.27
  A 1.76 1.74 55.8 0 0 80.89 67.05
  Q 80.22 67.14 79.64 67.50
  Q 77.11 69.07 78.21 66.31
  Z
  M 81.36 64.36
  Q 81.43 64.16 81.30 64.03
  Q 80.97 63.70 80.84 64.14
  L 80.53 65.14
  Q 80.38 65.63 80.89 65.63
  L 81.26 65.63
  A 0.45 0.44 -85.5 0 0 81.70 65.25
  Q 81.76 64.82 81.44 64.59
  Q 81.32 64.50 81.36 64.36
  Z"
/>
<path fill="#0071bc" d="
  M 88.78 61.96
  L 88.82 67.33
  Q 88.83 67.99 88.17 68.00
  L 87.77 68.01
  Q 87.01 68.02 87.03 67.27
  L 87.11 62.15
  Q 87.12 61.61 86.59 61.48
  Q 86.16 61.39 85.69 61.46
  Q 85.00 61.57 85.03 60.87
  L 85.04 60.47
  A 0.71 0.71 0.0 0 1 85.75 59.79
  L 90.30 59.78
  Q 91.09 59.78 90.94 60.55
  L 90.86 60.98
  A 0.68 0.68 0.0 0 1 90.16 61.52
  L 89.29 61.47
  Q 88.77 61.45 88.78 61.96
  Z"
/>
<path fill="#0071bc" d="
  M 100.23 63.89
  A 4.26 4.26 0.0 0 1 95.97 68.15
  A 4.26 4.26 0.0 0 1 91.71 63.89
  A 4.26 4.26 0.0 0 1 95.97 59.63
  A 4.26 4.26 0.0 0 1 100.23 63.89
  Z
  M 98.44 63.91
  A 2.46 2.46 0.0 0 0 95.98 61.45
  A 2.46 2.46 0.0 0 0 93.52 63.91
  A 2.46 2.46 0.0 0 0 95.98 66.37
  A 2.46 2.46 0.0 0 0 98.44 63.91
  Z"
/>
<path fill="#0071bc" d="
  M 103.45 66.22
  L 103.50 67.31
  Q 103.53 67.91 102.94 67.97
  L 102.41 68.02
  A 0.62 0.61 -2.6 0 1 101.74 67.41
  L 101.76 60.48
  Q 101.76 59.77 102.47 59.77
  C 104.18 59.75 106.63 59.41 107.29 61.51
  Q 107.81 63.18 106.37 64.30
  Q 105.82 64.72 106.18 65.31
  L 107.40 67.29
  Q 107.81 67.96 107.02 67.98
  L 106.44 68.00
  Q 105.86 68.02 105.60 67.51
  Q 105.18 66.68 104.68 65.85
  Q 103.33 63.61 103.45 66.22
  Z
  M 104.23 63.36
  Q 105.29 63.39 105.63 62.56
  A 0.69 0.69 0.0 0 0 105.38 61.74
  Q 104.80 61.35 104.08 61.41
  Q 103.30 61.48 103.42 62.25
  L 103.49 62.70
  Q 103.58 63.34 104.23 63.36
  Z"
/>
<ellipse fill="#ffffff" cx="0.00" cy="0.00" transform="translate(73.97,62.39) rotate(3.1)" rx="1.11" ry="0.98"/>
<circle fill="#ffffff" cx="95.98" cy="63.91" r="2.46"/>
<path fill="#ffffff" d="
  M 104.23 63.36
  Q 103.58 63.34 103.49 62.70
  L 103.42 62.25
  Q 103.30 61.48 104.08 61.41
  Q 104.80 61.35 105.38 61.74
  A 0.69 0.69 0.0 0 1 105.63 62.56
  Q 105.29 63.39 104.23 63.36
  Z"
/>
<path fill="#ffffff" d="
  M 81.44 64.59
  Q 81.76 64.82 81.70 65.25
  A 0.45 0.44 -85.5 0 1 81.26 65.63
  L 80.89 65.63
  Q 80.38 65.63 80.53 65.14
  L 80.84 64.14
  Q 80.97 63.70 81.30 64.03
  Q 81.43 64.16 81.36 64.36
  Q 81.32 64.50 81.44 64.59
  Z"
/>
</svg>
